REM DIRINDEX 1\2\4\8,1\2\4\9,1\2\4\10,1\2\5\11,1\2\5\12,1\2\5\13,1\2\5\14,1\2\5\15,1\3\6\16,1\3\6\17,1\3\6\18,1\3\7\19,1\3\7\20,1\3\7\21,1\3\7\22,1\3\7\23
REM DIRNAME "folder01","folder02","folder03","folder04","folder05","folder06","folder07","folder08","folder09","folder10","folder11","folder12","folder13","folder14","folder15","folder16","folder17","folder18","folder19","folder20","folder21","folder22","folder23"
TITLE ""
FILE "LR_black_phrase_03.mp3" MP3
  TRACK 01 AUDIO
    TITLE "0:"
    INDEX 01 00:00:00
  TRACK 02 AUDIO
    TITLE "11:cjc171_04001"
    INDEX 01 00:00:08
  TRACK 03 AUDIO
    TITLE "0:"
    INDEX 01 00:01:31
  TRACK 04 AUDIO
    TITLE "12:cjc171_04002"
    INDEX 01 00:01:72
  TRACK 05 AUDIO
    TITLE "0:"
    INDEX 01 00:04:53
  TRACK 06 AUDIO
    TITLE "13:cjc171_04003"
    INDEX 01 00:05:55
  TRACK 07 AUDIO
    TITLE "0:"
    INDEX 01 00:07:75
  TRACK 08 AUDIO
    TITLE "14:cjc171_04004"
    INDEX 01 00:08:39
  TRACK 09 AUDIO
    TITLE "0:"
    INDEX 01 00:10:58
  TRACK 10 AUDIO
    TITLE "15:cjc171_04005"
    INDEX 01 00:11:12
  TRACK 11 AUDIO
    TITLE "0:"
    INDEX 01 00:13:31
  TRACK 12 AUDIO
    TITLE "11:cjc171_04006"
    INDEX 01 00:14:34
  TRACK 13 AUDIO
    TITLE "0:"
    INDEX 01 00:15:59
  TRACK 14 AUDIO
    TITLE "12:cjc171_04007"
    INDEX 01 00:16:25
  TRACK 15 AUDIO
    TITLE "0:"
    INDEX 01 00:17:71
  TRACK 16 AUDIO
    TITLE "13:cjc171_04008"
    INDEX 01 00:18:73
  TRACK 17 AUDIO
    TITLE "0:"
    INDEX 01 00:21:48
  TRACK 18 AUDIO
    TITLE "14:cjc171_04009"
    INDEX 01 00:22:12
  TRACK 19 AUDIO
    TITLE "0:"
    INDEX 01 00:24:01
  TRACK 20 AUDIO
    TITLE "15:cjc171_04010"
    INDEX 01 00:24:32
  TRACK 21 AUDIO
    TITLE "0:"
    INDEX 01 00:26:21
  TRACK 22 AUDIO
    TITLE "11:cjc171_04011"
    INDEX 01 00:27:27
  TRACK 23 AUDIO
    TITLE "0:"
    INDEX 01 00:28:52
  TRACK 24 AUDIO
    TITLE "12:cjc171_04012"
    INDEX 01 00:29:14
  TRACK 25 AUDIO
    TITLE "0:"
    INDEX 01 00:32:30
  TRACK 26 AUDIO
    TITLE "13:cjc171_04013"
    INDEX 01 00:33:29
  TRACK 27 AUDIO
    TITLE "0:"
    INDEX 01 00:35:58
  TRACK 28 AUDIO
    TITLE "14:cjc171_04014"
    INDEX 01 00:36:22
  TRACK 29 AUDIO
    TITLE "0:"
    INDEX 01 00:38:56
  TRACK 30 AUDIO
    TITLE "15:cjc171_04015"
    INDEX 01 00:39:12
  TRACK 31 AUDIO
    TITLE "0:"
    INDEX 01 00:41:46
  TRACK 32 AUDIO
    TITLE "11:cjc171_04016"
    INDEX 01 00:42:52
  TRACK 33 AUDIO
    TITLE "0:"
    INDEX 01 00:43:75
  TRACK 34 AUDIO
    TITLE "12:cjc171_04017"
    INDEX 01 00:44:41
  TRACK 35 AUDIO
    TITLE "0:"
    INDEX 01 00:47:71
  TRACK 36 AUDIO
    TITLE "13:cjc171_04018"
    INDEX 01 00:48:70
  TRACK 37 AUDIO
    TITLE "0:"
    INDEX 01 00:50:65
  TRACK 38 AUDIO
    TITLE "14:cjc171_04019"
    INDEX 01 00:51:31
  TRACK 39 AUDIO
    TITLE "0:"
    INDEX 01 00:53:69
  TRACK 40 AUDIO
    TITLE "15:cjc171_04020"
    INDEX 01 00:54:26
  TRACK 41 AUDIO
    TITLE "0:"
    INDEX 01 00:56:64
  TRACK 42 AUDIO
    TITLE "11:cjc171_04021"
    INDEX 01 00:57:69
  TRACK 43 AUDIO
    TITLE "0:"
    INDEX 01 00:59:33
  TRACK 44 AUDIO
    TITLE "12:cjc171_04022"
    INDEX 01 00:59:72
  TRACK 45 AUDIO
    TITLE "0:"
    INDEX 01 01:02:58
  TRACK 46 AUDIO
    TITLE "13:cjc171_04023"
    INDEX 01 01:03:60
  TRACK 47 AUDIO
    TITLE "0:"
    INDEX 01 01:05:63
  TRACK 48 AUDIO
    TITLE "14:cjc171_04024"
    INDEX 01 01:06:27
  TRACK 49 AUDIO
    TITLE "0:"
    INDEX 01 01:08:39
  TRACK 50 AUDIO
    TITLE "15:cjc171_04025"
    INDEX 01 01:08:73
  TRACK 51 AUDIO
    TITLE "0:"
    INDEX 01 01:11:10
  TRACK 52 AUDIO
    TITLE "11:cjc171_04026"
    INDEX 01 01:12:20
  TRACK 53 AUDIO
    TITLE "0:"
    INDEX 01 01:13:33
  TRACK 54 AUDIO
    TITLE "12:cjc171_04027"
    INDEX 01 01:13:72
  TRACK 55 AUDIO
    TITLE "0:"
    INDEX 01 01:16:31
  TRACK 56 AUDIO
    TITLE "13:cjc171_04028"
    INDEX 01 01:17:31
  TRACK 57 AUDIO
    TITLE "0:"
    INDEX 01 01:19:10
  TRACK 58 AUDIO
    TITLE "14:cjc171_04029"
    INDEX 01 01:19:49
  TRACK 59 AUDIO
    TITLE "0:"
    INDEX 01 01:21:56
  TRACK 60 AUDIO
    TITLE "15:cjc171_04030"
    INDEX 01 01:22:10
  TRACK 61 AUDIO
    TITLE "0:"
    INDEX 01 01:24:15
  TRACK 62 AUDIO
    TITLE "11:cjc171_04031"
    INDEX 01 01:25:20
  TRACK 63 AUDIO
    TITLE "0:"
    INDEX 01 01:26:35
  TRACK 64 AUDIO
    TITLE "12:cjc171_04032"
    INDEX 01 01:26:75
  TRACK 65 AUDIO
    TITLE "0:"
    INDEX 01 01:29:06
  TRACK 66 AUDIO
    TITLE "13:cjc171_04033"
    INDEX 01 01:30:08
  TRACK 67 AUDIO
    TITLE "0:"
    INDEX 01 01:32:32
  TRACK 68 AUDIO
    TITLE "14:cjc171_04034"
    INDEX 01 01:32:69
  TRACK 69 AUDIO
    TITLE "0:"
    INDEX 01 01:35:36
  TRACK 70 AUDIO
    TITLE "15:cjc171_04035"
    INDEX 01 01:35:64
  TRACK 71 AUDIO
    TITLE "0:"
    INDEX 01 01:38:31
  TRACK 72 AUDIO
    TITLE "11:cjc171_04036"
    INDEX 01 01:39:34
  TRACK 73 AUDIO
    TITLE "0:"
    INDEX 01 01:40:41
  TRACK 74 AUDIO
    TITLE "12:cjc171_04037"
    INDEX 01 01:41:04
  TRACK 75 AUDIO
    TITLE "0:"
    INDEX 01 01:42:23
  TRACK 76 AUDIO
    TITLE "13:cjc171_04038"
    INDEX 01 01:43:24
  TRACK 77 AUDIO
    TITLE "0:"
    INDEX 01 01:45:35
  TRACK 78 AUDIO
    TITLE "14:cjc171_04039"
    INDEX 01 01:46:03
  TRACK 79 AUDIO
    TITLE "0:"
    INDEX 01 01:47:55
  TRACK 80 AUDIO
    TITLE "15:cjc171_04040"
    INDEX 01 01:48:10
  TRACK 81 AUDIO
    TITLE "0:"
    INDEX 01 01:49:64
  TRACK 82 AUDIO
    TITLE "11:cjc171_04041"
    INDEX 01 01:50:65
  TRACK 83 AUDIO
    TITLE "0:"
    INDEX 01 01:52:07
  TRACK 84 AUDIO
    TITLE "12:cjc171_04042"
    INDEX 01 01:52:43
  TRACK 85 AUDIO
    TITLE "0:"
    INDEX 01 01:55:45
  TRACK 86 AUDIO
    TITLE "13:cjc171_04043"
    INDEX 01 01:56:44
  TRACK 87 AUDIO
    TITLE "0:"
    INDEX 01 01:58:53
  TRACK 88 AUDIO
    TITLE "14:cjc171_04044"
    INDEX 01 01:59:11
  TRACK 89 AUDIO
    TITLE "0:"
    INDEX 01 02:01:16
  TRACK 90 AUDIO
    TITLE "15:cjc171_04045"
    INDEX 01 02:01:40
  TRACK 91 AUDIO
    TITLE "0:"
    INDEX 01 02:03:44
  TRACK 92 AUDIO
    TITLE "11:cjc171_04046"
    INDEX 01 02:04:48
  TRACK 93 AUDIO
    TITLE "0:"
    INDEX 01 02:06:02
  TRACK 94 AUDIO
    TITLE "12:cjc171_04047"
    INDEX 01 02:06:39
  TRACK 95 AUDIO
    TITLE "0:"
    INDEX 01 02:09:04
  TRACK 96 AUDIO
    TITLE "13:cjc171_04048"
    INDEX 01 02:10:01
  TRACK 97 AUDIO
    TITLE "0:"
    INDEX 01 02:12:37
  TRACK 98 AUDIO
    TITLE "14:cjc171_04049"
    INDEX 01 02:13:04
  TRACK 99 AUDIO
    TITLE "0:"
    INDEX 01 02:15:67
  TRACK 100 AUDIO
    TITLE "15:cjc171_04050"
    INDEX 01 02:16:20
  TRACK 101 AUDIO
    TITLE "0:"
    INDEX 01 02:19:08
  TRACK 102 AUDIO
    TITLE "11:cjc171_04051"
    INDEX 01 02:20:04
  TRACK 103 AUDIO
    TITLE "0:"
    INDEX 01 02:21:31
  TRACK 104 AUDIO
    TITLE "12:cjc171_04052"
    INDEX 01 02:21:66
  TRACK 105 AUDIO
    TITLE "0:"
    INDEX 01 02:24:33
  TRACK 106 AUDIO
    TITLE "13:cjc171_04053"
    INDEX 01 02:25:32
  TRACK 107 AUDIO
    TITLE "0:"
    INDEX 01 02:27:57
  TRACK 108 AUDIO
    TITLE "14:cjc171_04054"
    INDEX 01 02:28:23
  TRACK 109 AUDIO
    TITLE "0:"
    INDEX 01 02:30:51
  TRACK 110 AUDIO
    TITLE "15:cjc171_04055"
    INDEX 01 02:31:07
  TRACK 111 AUDIO
    TITLE "0:"
    INDEX 01 02:33:38
  TRACK 112 AUDIO
    TITLE "11:cjc171_04056"
    INDEX 01 02:34:41
  TRACK 113 AUDIO
    TITLE "0:"
    INDEX 01 02:35:54
  TRACK 114 AUDIO
    TITLE "12:cjc171_04057"
    INDEX 01 02:36:20
  TRACK 115 AUDIO
    TITLE "0:"
    INDEX 01 02:37:51
  TRACK 116 AUDIO
    TITLE "13:cjc171_04058"
    INDEX 01 02:38:49
  TRACK 117 AUDIO
    TITLE "0:"
    INDEX 01 02:41:57
  TRACK 118 AUDIO
    TITLE "14:cjc171_04059"
    INDEX 01 02:42:15
  TRACK 119 AUDIO
    TITLE "0:"
    INDEX 01 02:44:61
  TRACK 120 AUDIO
    TITLE "15:cjc171_04060"
    INDEX 01 02:45:06
  TRACK 121 AUDIO
    TITLE "0:"
    INDEX 01 02:47:52
  TRACK 122 AUDIO
    TITLE "11:cjc171_04061"
    INDEX 01 02:48:45
  TRACK 123 AUDIO
    TITLE "0:"
    INDEX 01 02:49:58
  TRACK 124 AUDIO
    TITLE "12:cjc171_04062"
    INDEX 01 02:50:24
  TRACK 125 AUDIO
    TITLE "0:"
    INDEX 01 02:52:15
  TRACK 126 AUDIO
    TITLE "13:cjc171_04063"
    INDEX 01 02:53:13
  TRACK 127 AUDIO
    TITLE "0:"
    INDEX 01 02:55:43
  TRACK 128 AUDIO
    TITLE "14:cjc171_04064"
    INDEX 01 02:56:07
  TRACK 129 AUDIO
    TITLE "0:"
    INDEX 01 02:58:26
  TRACK 130 AUDIO
    TITLE "15:cjc171_04065"
    INDEX 01 02:58:65
  TRACK 131 AUDIO
    TITLE "0:"
    INDEX 01 03:01:09
  TRACK 132 AUDIO
    TITLE "11:cjc171_04066"
    INDEX 01 03:02:22
  TRACK 133 AUDIO
    TITLE "0:"
    INDEX 01 03:03:39
  TRACK 134 AUDIO
    TITLE "12:cjc171_04067"
    INDEX 01 03:04:05
  TRACK 135 AUDIO
    TITLE "0:"
    INDEX 01 03:05:38
  TRACK 136 AUDIO
    TITLE "13:cjc171_04068"
    INDEX 01 03:06:37
  TRACK 137 AUDIO
    TITLE "0:"
    INDEX 01 03:08:73
  TRACK 138 AUDIO
    TITLE "14:cjc171_04069"
    INDEX 01 03:09:39
  TRACK 139 AUDIO
    TITLE "0:"
    INDEX 01 03:11:50
  TRACK 140 AUDIO
    TITLE "15:cjc171_04070"
    INDEX 01 03:12:04
  TRACK 141 AUDIO
    TITLE "0:"
    INDEX 01 03:14:19
  TRACK 142 AUDIO
    TITLE "11:cjc171_04071"
    INDEX 01 03:15:16
  TRACK 143 AUDIO
    TITLE "0:"
    INDEX 01 03:16:43
  TRACK 144 AUDIO
    TITLE "12:cjc171_04072"
    INDEX 01 03:17:11
  TRACK 145 AUDIO
    TITLE "0:"
    INDEX 01 03:18:70
  TRACK 146 AUDIO
    TITLE "13:cjc171_04073"
    INDEX 01 03:19:69
  TRACK 147 AUDIO
    TITLE "0:"
    INDEX 01 03:22:60
  TRACK 148 AUDIO
    TITLE "14:cjc171_04074"
    INDEX 01 03:23:18
  TRACK 149 AUDIO
    TITLE "0:"
    INDEX 01 03:25:70
  TRACK 150 AUDIO
    TITLE "15:cjc171_04075"
    INDEX 01 03:26:14
  TRACK 151 AUDIO
    TITLE "0:"
    INDEX 01 03:28:66
  TRACK 152 AUDIO
    TITLE "11:cjc171_04076"
    INDEX 01 03:29:62
  TRACK 153 AUDIO
    TITLE "0:"
    INDEX 01 03:31:15
  TRACK 154 AUDIO
    TITLE "12:cjc171_04077"
    INDEX 01 03:31:63
  TRACK 155 AUDIO
    TITLE "0:"
    INDEX 01 03:32:66
  TRACK 156 AUDIO
    TITLE "13:cjc171_04078"
    INDEX 01 03:33:67
  TRACK 157 AUDIO
    TITLE "0:"
    INDEX 01 03:35:37
  TRACK 158 AUDIO
    TITLE "14:cjc171_04079"
    INDEX 01 03:35:70
  TRACK 159 AUDIO
    TITLE "0:"
    INDEX 01 03:37:51
  TRACK 160 AUDIO
    TITLE "15:cjc171_04080"
    INDEX 01 03:37:69
  TRACK 161 AUDIO
    TITLE "0:"
    INDEX 01 03:39:50
  TRACK 162 AUDIO
    TITLE "11:cjc171_04081"
    INDEX 01 03:40:44
  TRACK 163 AUDIO
    TITLE "0:"
    INDEX 01 03:41:55
  TRACK 164 AUDIO
    TITLE "12:cjc171_04082"
    INDEX 01 03:42:19
  TRACK 165 AUDIO
    TITLE "0:"
    INDEX 01 03:43:30
  TRACK 166 AUDIO
    TITLE "13:cjc171_04083"
    INDEX 01 03:44:32
  TRACK 167 AUDIO
    TITLE "0:"
    INDEX 01 03:47:28
  TRACK 168 AUDIO
    TITLE "14:cjc171_04084"
    INDEX 01 03:47:64
  TRACK 169 AUDIO
    TITLE "0:"
    INDEX 01 03:50:70
  TRACK 170 AUDIO
    TITLE "15:cjc171_04085"
    INDEX 01 03:51:16
  TRACK 171 AUDIO
    TITLE "0:"
    INDEX 01 03:54:22
  TRACK 172 AUDIO
    TITLE "11:cjc171_04086"
    INDEX 01 03:55:20
  TRACK 173 AUDIO
    TITLE "0:"
    INDEX 01 03:56:35
  TRACK 174 AUDIO
    TITLE "12:cjc171_04087"
    INDEX 01 03:56:74
  TRACK 175 AUDIO
    TITLE "0:"
    INDEX 01 03:58:07
  TRACK 176 AUDIO
    TITLE "13:cjc171_04088"
    INDEX 01 03:59:04
  TRACK 177 AUDIO
    TITLE "0:"
    INDEX 01 04:01:34
  TRACK 178 AUDIO
    TITLE "14:cjc171_04089"
    INDEX 01 04:01:71
  TRACK 179 AUDIO
    TITLE "0:"
    INDEX 01 04:04:52
  TRACK 180 AUDIO
    TITLE "15:cjc171_04090"
    INDEX 01 04:05:05
  TRACK 181 AUDIO
    TITLE "0:"
    INDEX 01 04:07:60
  TRACK 182 AUDIO
    TITLE "11:cjc171_04091"
    INDEX 01 04:08:58
  TRACK 183 AUDIO
    TITLE "0:"
    INDEX 01 04:10:16
  TRACK 184 AUDIO
    TITLE "12:cjc171_04092"
    INDEX 01 04:10:59
  TRACK 185 AUDIO
    TITLE "0:"
    INDEX 01 04:12:12
  TRACK 186 AUDIO
    TITLE "13:cjc171_04093"
    INDEX 01 04:13:12
  TRACK 187 AUDIO
    TITLE "0:"
    INDEX 01 04:14:66
  TRACK 188 AUDIO
    TITLE "14:cjc171_04094"
    INDEX 01 04:15:27
  TRACK 189 AUDIO
    TITLE "0:"
    INDEX 01 04:17:45
  TRACK 190 AUDIO
    TITLE "15:cjc171_04095"
    INDEX 01 04:17:67
  TRACK 191 AUDIO
    TITLE "0:"
    INDEX 01 04:20:10
  TRACK 192 AUDIO
    TITLE "11:cjc171_04096"
    INDEX 01 04:21:08
  TRACK 193 AUDIO
    TITLE "0:"
    INDEX 01 04:22:36
  TRACK 194 AUDIO
    TITLE "12:cjc171_04097"
    INDEX 01 04:22:74
  TRACK 195 AUDIO
    TITLE "0:"
    INDEX 01 04:25:25
  TRACK 196 AUDIO
    TITLE "13:cjc171_04098"
    INDEX 01 04:26:24
  TRACK 197 AUDIO
    TITLE "0:"
    INDEX 01 04:27:75
  TRACK 198 AUDIO
    TITLE "14:cjc171_04099"
    INDEX 01 04:28:33
  TRACK 199 AUDIO
    TITLE "0:"
    INDEX 01 04:30:38
  TRACK 200 AUDIO
    TITLE "15:cjc171_04100"
    INDEX 01 04:30:59
  TRACK 201 AUDIO
    TITLE "0:"
    INDEX 01 04:32:66
  TRACK 202 AUDIO
    TITLE "11:cjc171_04101"
    INDEX 01 04:33:70
  TRACK 203 AUDIO
    TITLE "0:"
    INDEX 01 04:35:15
  TRACK 204 AUDIO
    TITLE "12:cjc171_04102"
    INDEX 01 04:35:57
  TRACK 205 AUDIO
    TITLE "0:"
    INDEX 01 04:39:41
  TRACK 206 AUDIO
    TITLE "13:cjc171_04103"
    INDEX 01 04:40:42
  TRACK 207 AUDIO
    TITLE "0:"
    INDEX 01 04:42:66
  TRACK 208 AUDIO
    TITLE "14:cjc171_04104"
    INDEX 01 04:43:31
  TRACK 209 AUDIO
    TITLE "0:"
    INDEX 01 04:45:43
  TRACK 210 AUDIO
    TITLE "15:cjc171_04105"
    INDEX 01 04:45:73
  TRACK 211 AUDIO
    TITLE "0:"
    INDEX 01 04:48:10
  TRACK 212 AUDIO
    TITLE "11:cjc171_04106"
    INDEX 01 04:49:14
  TRACK 213 AUDIO
    TITLE "0:"
    INDEX 01 04:50:54
  TRACK 214 AUDIO
    TITLE "12:cjc171_04107"
    INDEX 01 04:51:20
  TRACK 215 AUDIO
    TITLE "0:"
    INDEX 01 04:54:11
  TRACK 216 AUDIO
    TITLE "13:cjc171_04108"
    INDEX 01 04:55:10
  TRACK 217 AUDIO
    TITLE "0:"
    INDEX 01 04:57:03
  TRACK 218 AUDIO
    TITLE "14:cjc171_04109"
    INDEX 01 04:57:43
  TRACK 219 AUDIO
    TITLE "0:"
    INDEX 01 04:59:39
  TRACK 220 AUDIO
    TITLE "15:cjc171_04110"
    INDEX 01 04:59:69
  TRACK 221 AUDIO
    TITLE "0:"
    INDEX 01 05:01:66
  TRACK 222 AUDIO
    TITLE "11:cjc171_04111"
    INDEX 01 05:02:71
  TRACK 223 AUDIO
    TITLE "0:"
    INDEX 01 05:04:23
  TRACK 224 AUDIO
    TITLE "12:cjc171_04112"
    INDEX 01 05:04:68
  TRACK 225 AUDIO
    TITLE "0:"
    INDEX 01 05:07:27
  TRACK 226 AUDIO
    TITLE "13:cjc171_04113"
    INDEX 01 05:08:21
  TRACK 227 AUDIO
    TITLE "0:"
    INDEX 01 05:09:67
  TRACK 228 AUDIO
    TITLE "14:cjc171_04114"
    INDEX 01 05:10:30
  TRACK 229 AUDIO
    TITLE "0:"
    INDEX 01 05:12:24
  TRACK 230 AUDIO
    TITLE "15:cjc171_04115"
    INDEX 01 05:12:52
  TRACK 231 AUDIO
    TITLE "0:"
    INDEX 01 05:14:45
  TRACK 232 AUDIO
    TITLE "11:cjc171_04116"
    INDEX 01 05:15:50
  TRACK 233 AUDIO
    TITLE "0:"
    INDEX 01 05:16:67
  TRACK 234 AUDIO
    TITLE "12:cjc171_04117"
    INDEX 01 05:17:30
  TRACK 235 AUDIO
    TITLE "0:"
    INDEX 01 05:19:68
  TRACK 236 AUDIO
    TITLE "13:cjc171_04118"
    INDEX 01 05:20:63
  TRACK 237 AUDIO
    TITLE "0:"
    INDEX 01 05:23:52
  TRACK 238 AUDIO
    TITLE "14:cjc171_04119"
    INDEX 01 05:24:18
  TRACK 239 AUDIO
    TITLE "0:"
    INDEX 01 05:26:30
  TRACK 240 AUDIO
    TITLE "15:cjc171_04120"
    INDEX 01 05:26:60
  TRACK 241 AUDIO
    TITLE "0:"
    INDEX 01 05:28:74
  TRACK 242 AUDIO
    TITLE "11:cjc171_04121"
    INDEX 01 05:30:03
  TRACK 243 AUDIO
    TITLE "0:"
    INDEX 01 05:31:24
  TRACK 244 AUDIO
    TITLE "12:cjc171_04122"
    INDEX 01 05:31:65
  TRACK 245 AUDIO
    TITLE "0:"
    INDEX 01 05:33:19
  TRACK 246 AUDIO
    TITLE "13:cjc171_04123"
    INDEX 01 05:34:16
  TRACK 247 AUDIO
    TITLE "0:"
    INDEX 01 05:36:56
  TRACK 248 AUDIO
    TITLE "14:cjc171_04124"
    INDEX 01 05:37:21
  TRACK 249 AUDIO
    TITLE "0:"
    INDEX 01 05:39:41
  TRACK 250 AUDIO
    TITLE "15:cjc171_04125"
    INDEX 01 05:39:70
  TRACK 251 AUDIO
    TITLE "0:"
    INDEX 01 05:42:16
  TRACK 252 AUDIO
    TITLE "11:cjc171_04126"
    INDEX 01 05:43:19
  TRACK 253 AUDIO
    TITLE "0:"
    INDEX 01 05:44:32
  TRACK 254 AUDIO
    TITLE "12:cjc171_04127"
    INDEX 01 05:44:73
  TRACK 255 AUDIO
    TITLE "0:"
    INDEX 01 05:47:56
  TRACK 256 AUDIO
    TITLE "13:cjc171_04128"
    INDEX 01 05:48:56
  TRACK 257 AUDIO
    TITLE "0:"
    INDEX 01 05:50:55
  TRACK 258 AUDIO
    TITLE "14:cjc171_04129"
    INDEX 01 05:51:21
  TRACK 259 AUDIO
    TITLE "0:"
    INDEX 01 05:53:10
  TRACK 260 AUDIO
    TITLE "15:cjc171_04130"
    INDEX 01 05:53:41
  TRACK 261 AUDIO
    TITLE "0:"
    INDEX 01 05:55:30
  TRACK 262 AUDIO
    TITLE "11:cjc171_04131"
    INDEX 01 05:56:34
  TRACK 263 AUDIO
    TITLE "0:"
    INDEX 01 05:57:47
  TRACK 264 AUDIO
    TITLE "12:cjc171_04132"
    INDEX 01 05:58:13
  TRACK 265 AUDIO
    TITLE "0:"
    INDEX 01 05:59:53
  TRACK 266 AUDIO
    TITLE "13:cjc171_04133"
    INDEX 01 06:00:55
  TRACK 267 AUDIO
    TITLE "0:"
    INDEX 01 06:03:24
  TRACK 268 AUDIO
    TITLE "14:cjc171_04134"
    INDEX 01 06:03:59
  TRACK 269 AUDIO
    TITLE "0:"
    INDEX 01 06:06:28
  TRACK 270 AUDIO
    TITLE "15:cjc171_04135"
    INDEX 01 06:06:55
  TRACK 271 AUDIO
    TITLE "0:"
    INDEX 01 06:09:22
  TRACK 272 AUDIO
    TITLE "11:cjc171_04136"
    INDEX 01 06:10:28
  TRACK 273 AUDIO
    TITLE "0:"
    INDEX 01 06:11:39
  TRACK 274 AUDIO
    TITLE "12:cjc171_04137"
    INDEX 01 06:12:05
  TRACK 275 AUDIO
    TITLE "0:"
    INDEX 01 06:13:32
  TRACK 276 AUDIO
    TITLE "13:cjc171_04138"
    INDEX 01 06:14:31
  TRACK 277 AUDIO
    TITLE "0:"
    INDEX 01 06:16:24
  TRACK 278 AUDIO
    TITLE "14:cjc171_04139"
    INDEX 01 06:16:64
  TRACK 279 AUDIO
    TITLE "0:"
    INDEX 01 06:18:37
  TRACK 280 AUDIO
    TITLE "15:cjc171_04140"
    INDEX 01 06:18:66
  TRACK 281 AUDIO
    TITLE "0:"
    INDEX 01 06:20:40
  TRACK 282 AUDIO
    TITLE "11:cjc171_04141"
    INDEX 01 06:21:47
  TRACK 283 AUDIO
    TITLE "0:"
    INDEX 01 06:22:62
  TRACK 284 AUDIO
    TITLE "12:cjc171_04142"
    INDEX 01 06:23:27
  TRACK 285 AUDIO
    TITLE "0:"
    INDEX 01 06:26:11
  TRACK 286 AUDIO
    TITLE "13:cjc171_04143"
    INDEX 01 06:27:09
  TRACK 287 AUDIO
    TITLE "0:"
    INDEX 01 06:30:01
  TRACK 288 AUDIO
    TITLE "14:cjc171_04144"
    INDEX 01 06:30:40
  TRACK 289 AUDIO
    TITLE "0:"
    INDEX 01 06:34:03
  TRACK 290 AUDIO
    TITLE "15:cjc171_04145"
    INDEX 01 06:34:32
  TRACK 291 AUDIO
    TITLE "0:"
    INDEX 01 06:37:72
  TRACK 292 AUDIO
    TITLE "11:cjc171_04146"
    INDEX 01 06:39:02
  TRACK 293 AUDIO
    TITLE "0:"
    INDEX 01 06:40:27
  TRACK 294 AUDIO
    TITLE "12:cjc171_04147"
    INDEX 01 06:40:68
  TRACK 295 AUDIO
    TITLE "0:"
    INDEX 01 06:42:47
  TRACK 296 AUDIO
    TITLE "13:cjc171_04148"
    INDEX 01 06:43:49
  TRACK 297 AUDIO
    TITLE "0:"
    INDEX 01 06:47:49
  TRACK 298 AUDIO
    TITLE "14:cjc171_04149"
    INDEX 01 06:48:13
  TRACK 299 AUDIO
    TITLE "0:"
    INDEX 01 06:49:75
  TRACK 300 AUDIO
    TITLE "15:cjc171_04150"
    INDEX 01 06:50:31
  TRACK 301 AUDIO
    TITLE "0:"
    INDEX 01 06:52:20
  TRACK 302 AUDIO
    TITLE "11:cjc171_04151"
    INDEX 01 06:53:20
  TRACK 303 AUDIO
    TITLE "0:"
    INDEX 01 06:54:43
  TRACK 304 AUDIO
    TITLE "12:cjc171_04152"
    INDEX 01 06:55:03
  TRACK 305 AUDIO
    TITLE "0:"
    INDEX 01 06:57:53
  TRACK 306 AUDIO
    TITLE "13:cjc171_04153"
    INDEX 01 06:58:54
  TRACK 307 AUDIO
    TITLE "0:"
    INDEX 01 07:00:30
  TRACK 308 AUDIO
    TITLE "14:cjc171_04154"
    INDEX 01 07:00:61
  TRACK 309 AUDIO
    TITLE "0:"
    INDEX 01 07:02:32
  TRACK 310 AUDIO
    TITLE "15:cjc171_04155"
    INDEX 01 07:02:48
  TRACK 311 AUDIO
    TITLE "0:"
    INDEX 01 07:04:20
  TRACK 312 AUDIO
    TITLE "11:cjc171_04156"
    INDEX 01 07:05:23
  TRACK 313 AUDIO
    TITLE "0:"
    INDEX 01 07:06:44
  TRACK 314 AUDIO
    TITLE "12:cjc171_04157"
    INDEX 01 07:07:10
  TRACK 315 AUDIO
    TITLE "0:"
    INDEX 01 07:09:40
  TRACK 316 AUDIO
    TITLE "13:cjc171_04158"
    INDEX 01 07:10:38
  TRACK 317 AUDIO
    TITLE "0:"
    INDEX 01 07:12:15
  TRACK 318 AUDIO
    TITLE "14:cjc171_04159"
    INDEX 01 07:12:54
  TRACK 319 AUDIO
    TITLE "0:"
    INDEX 01 07:14:53
  TRACK 320 AUDIO
    TITLE "15:cjc171_04160"
    INDEX 01 07:15:08
  TRACK 321 AUDIO
    TITLE "0:"
    INDEX 01 07:17:07
  TRACK 322 AUDIO
    TITLE "11:cjc171_04161"
    INDEX 01 07:18:10
  TRACK 323 AUDIO
    TITLE "0:"
    INDEX 01 07:19:35
  TRACK 324 AUDIO
    TITLE "12:cjc171_04162"
    INDEX 01 07:19:74
  TRACK 325 AUDIO
    TITLE "0:"
    INDEX 01 07:22:25
  TRACK 326 AUDIO
    TITLE "13:cjc171_04163"
    INDEX 01 07:23:25
  TRACK 327 AUDIO
    TITLE "0:"
    INDEX 01 07:24:58
  TRACK 328 AUDIO
    TITLE "14:cjc171_04164"
    INDEX 01 07:25:18
  TRACK 329 AUDIO
    TITLE "0:"
    INDEX 01 07:27:03
  TRACK 330 AUDIO
    TITLE "15:cjc171_04165"
    INDEX 01 07:27:27
  TRACK 331 AUDIO
    TITLE "0:"
    INDEX 01 07:29:12
  TRACK 332 AUDIO
    TITLE "11:cjc171_04166"
    INDEX 01 07:30:11
  TRACK 333 AUDIO
    TITLE "0:"
    INDEX 01 07:31:24
  TRACK 334 AUDIO
    TITLE "12:cjc171_04167"
    INDEX 01 07:31:62
  TRACK 335 AUDIO
    TITLE "0:"
    INDEX 01 07:34:17
  TRACK 336 AUDIO
    TITLE "13:cjc171_04168"
    INDEX 01 07:35:10
  TRACK 337 AUDIO
    TITLE "0:"
    INDEX 01 07:37:43
  TRACK 338 AUDIO
    TITLE "14:cjc171_04169"
    INDEX 01 07:38:07
  TRACK 339 AUDIO
    TITLE "0:"
    INDEX 01 07:41:17
  TRACK 340 AUDIO
    TITLE "15:cjc171_04170"
    INDEX 01 07:41:42
  TRACK 341 AUDIO
    TITLE "0:"
    INDEX 01 07:44:54
  TRACK 342 AUDIO
    TITLE "11:cjc171_04171"
    INDEX 01 07:45:52
  TRACK 343 AUDIO
    TITLE "0:"
    INDEX 01 07:46:55
  TRACK 344 AUDIO
    TITLE "12:cjc171_04172"
    INDEX 01 07:47:19
  TRACK 345 AUDIO
    TITLE "0:"
    INDEX 01 07:48:68
  TRACK 346 AUDIO
    TITLE "13:cjc171_04173"
    INDEX 01 07:49:67
  TRACK 347 AUDIO
    TITLE "0:"
    INDEX 01 07:52:38
  TRACK 348 AUDIO
    TITLE "14:cjc171_04174"
    INDEX 01 07:53:02
  TRACK 349 AUDIO
    TITLE "0:"
    INDEX 01 07:55:33
  TRACK 350 AUDIO
    TITLE "15:cjc171_04175"
    INDEX 01 07:55:58
  TRACK 351 AUDIO
    TITLE "0:"
    INDEX 01 07:58:11
  TRACK 352 AUDIO
    TITLE "11:cjc171_04176"
    INDEX 01 07:59:13
  TRACK 353 AUDIO
    TITLE "0:"
    INDEX 01 08:00:46
  TRACK 354 AUDIO
    TITLE "12:cjc171_04177"
    INDEX 01 08:01:10
  TRACK 355 AUDIO
    TITLE "0:"
    INDEX 01 08:02:23
  TRACK 356 AUDIO
    TITLE "13:cjc171_04178"
    INDEX 01 08:03:18
  TRACK 357 AUDIO
    TITLE "0:"
    INDEX 01 08:05:11
  TRACK 358 AUDIO
    TITLE "14:cjc171_04179"
    INDEX 01 08:05:55
  TRACK 359 AUDIO
    TITLE "0:"
    INDEX 01 08:08:14
  TRACK 360 AUDIO
    TITLE "15:cjc171_04180"
    INDEX 01 08:08:43
  TRACK 361 AUDIO
    TITLE "0:"
    INDEX 01 08:10:75
  TRACK 362 AUDIO
    TITLE "11:cjc171_04181"
    INDEX 01 08:12:04
  TRACK 363 AUDIO
    TITLE "0:"
    INDEX 01 08:13:27
  TRACK 364 AUDIO
    TITLE "12:cjc171_04182"
    INDEX 01 08:13:60
  TRACK 365 AUDIO
    TITLE "0:"
    INDEX 01 08:16:35
  TRACK 366 AUDIO
    TITLE "13:cjc171_04183"
    INDEX 01 08:17:34
  TRACK 367 AUDIO
    TITLE "0:"
    INDEX 01 08:19:70
  TRACK 368 AUDIO
    TITLE "14:cjc171_04184"
    INDEX 01 08:20:31
  TRACK 369 AUDIO
    TITLE "0:"
    INDEX 01 08:23:11
  TRACK 370 AUDIO
    TITLE "15:cjc171_04185"
    INDEX 01 08:23:35
  TRACK 371 AUDIO
    TITLE "0:"
    INDEX 01 08:26:16
  TRACK 372 AUDIO
    TITLE "11:cjc171_04186"
    INDEX 01 08:27:19
  TRACK 373 AUDIO
    TITLE "0:"
    INDEX 01 08:28:36
  TRACK 374 AUDIO
    TITLE "12:cjc171_04187"
    INDEX 01 08:28:75
  TRACK 375 AUDIO
    TITLE "0:"
    INDEX 01 08:31:11
  TRACK 376 AUDIO
    TITLE "13:cjc171_04188"
    INDEX 01 08:32:12
  TRACK 377 AUDIO
    TITLE "0:"
    INDEX 01 08:34:39
  TRACK 378 AUDIO
    TITLE "14:cjc171_04189"
    INDEX 01 08:35:03
  TRACK 379 AUDIO
    TITLE "0:"
    INDEX 01 08:37:13
  TRACK 380 AUDIO
    TITLE "15:cjc171_04190"
    INDEX 01 08:37:43
  TRACK 381 AUDIO
    TITLE "0:"
    INDEX 01 08:39:51
  TRACK 382 AUDIO
    TITLE "11:cjc171_04191"
    INDEX 01 08:40:57
  TRACK 383 AUDIO
    TITLE "0:"
    INDEX 01 08:41:70
  TRACK 384 AUDIO
    TITLE "12:cjc171_04192"
    INDEX 01 08:42:30
  TRACK 385 AUDIO
    TITLE "0:"
    INDEX 01 08:45:21
  TRACK 386 AUDIO
    TITLE "13:cjc171_04193"
    INDEX 01 08:46:20
  TRACK 387 AUDIO
    TITLE "0:"
    INDEX 01 08:47:57
  TRACK 388 AUDIO
    TITLE "14:cjc171_04194"
    INDEX 01 08:48:23
  TRACK 389 AUDIO
    TITLE "0:"
    INDEX 01 08:50:65
  TRACK 390 AUDIO
    TITLE "15:cjc171_04195"
    INDEX 01 08:51:19
  TRACK 391 AUDIO
    TITLE "0:"
    INDEX 01 08:53:63
  TRACK 392 AUDIO
    TITLE "11:cjc171_04196"
    INDEX 01 08:54:67
  TRACK 393 AUDIO
    TITLE "0:"
    INDEX 01 08:56:15
  TRACK 394 AUDIO
    TITLE "12:cjc171_04197"
    INDEX 01 08:56:50
  TRACK 395 AUDIO
    TITLE "0:"
    INDEX 01 08:57:51
  TRACK 396 AUDIO
    TITLE "13:cjc171_04198"
    INDEX 01 08:58:53
  TRACK 397 AUDIO
    TITLE "0:"
    INDEX 01 09:00:60
  TRACK 398 AUDIO
    TITLE "14:cjc171_04199"
    INDEX 01 09:01:14
  TRACK 399 AUDIO
    TITLE "0:"
    INDEX 01 09:04:16
  TRACK 400 AUDIO
    TITLE "15:cjc171_04200"
    INDEX 01 09:04:36
  TRACK 401 AUDIO
    TITLE "0:"
    INDEX 01 09:07:38
  TRACK 402 AUDIO
    TITLE "11:cjc171_04201"
    INDEX 01 09:08:41
  TRACK 403 AUDIO
    TITLE "0:"
    INDEX 01 09:09:60
  TRACK 404 AUDIO
    TITLE "12:cjc171_04202"
    INDEX 01 09:10:27
  TRACK 405 AUDIO
    TITLE "0:"
    INDEX 01 09:11:55
  TRACK 406 AUDIO
    TITLE "13:cjc171_04203"
    INDEX 01 09:12:55
  TRACK 407 AUDIO
    TITLE "0:"
    INDEX 01 09:14:54
  TRACK 408 AUDIO
    TITLE "14:cjc171_04204"
    INDEX 01 09:15:18
  TRACK 409 AUDIO
    TITLE "0:"
    INDEX 01 09:17:34
  TRACK 410 AUDIO
    TITLE "15:cjc171_04205"
    INDEX 01 09:17:64
  TRACK 411 AUDIO
    TITLE "0:"
    INDEX 01 09:20:07
  TRACK 412 AUDIO
    TITLE "11:cjc171_04206"
    INDEX 01 09:21:15
  TRACK 413 AUDIO
    TITLE "0:"
    INDEX 01 09:22:18
  TRACK 414 AUDIO
    TITLE "12:cjc171_04207"
    INDEX 01 09:22:57
  TRACK 415 AUDIO
    TITLE "0:"
    INDEX 01 09:24:62
  TRACK 416 AUDIO
    TITLE "13:cjc171_04208"
    INDEX 01 09:25:63
  TRACK 417 AUDIO
    TITLE "0:"
    INDEX 01 09:27:27
  TRACK 418 AUDIO
    TITLE "14:cjc171_04209"
    INDEX 01 09:27:68
  TRACK 419 AUDIO
    TITLE "0:"
    INDEX 01 09:29:32
  TRACK 420 AUDIO
    TITLE "15:cjc171_04210"
    INDEX 01 09:29:63
  TRACK 421 AUDIO
    TITLE "0:"
    INDEX 01 09:31:27
  TRACK 422 AUDIO
    TITLE "11:cjc171_04211"
    INDEX 01 09:32:30
  TRACK 423 AUDIO
    TITLE "0:"
    INDEX 01 09:33:59
  TRACK 424 AUDIO
    TITLE "12:cjc171_04212"
    INDEX 01 09:34:25
  TRACK 425 AUDIO
    TITLE "0:"
    INDEX 01 09:36:59
  TRACK 426 AUDIO
    TITLE "13:cjc171_04213"
    INDEX 01 09:37:57
  TRACK 427 AUDIO
    TITLE "0:"
    INDEX 01 09:39:32
  TRACK 428 AUDIO
    TITLE "14:cjc171_04214"
    INDEX 01 09:39:69
  TRACK 429 AUDIO
    TITLE "0:"
    INDEX 01 09:41:58
  TRACK 430 AUDIO
    TITLE "15:cjc171_04215"
    INDEX 01 09:42:13
  TRACK 431 AUDIO
    TITLE "0:"
    INDEX 01 09:43:75
  TRACK 432 AUDIO
    TITLE "11:cjc171_04216"
    INDEX 01 09:45:05
  TRACK 433 AUDIO
    TITLE "0:"
    INDEX 01 09:46:17
  TRACK 434 AUDIO
    TITLE "12:cjc171_04217"
    INDEX 01 09:46:58
  TRACK 435 AUDIO
    TITLE "0:"
    INDEX 01 09:48:59
  TRACK 436 AUDIO
    TITLE "13:cjc171_04218"
    INDEX 01 09:49:56
  TRACK 437 AUDIO
    TITLE "0:"
    INDEX 01 09:52:11
  TRACK 438 AUDIO
    TITLE "14:cjc171_04219"
    INDEX 01 09:52:52
  TRACK 439 AUDIO
    TITLE "0:"
    INDEX 01 09:54:34
  TRACK 440 AUDIO
    TITLE "15:cjc171_04220"
    INDEX 01 09:54:63
  TRACK 441 AUDIO
    TITLE "0:"
    INDEX 01 09:56:42
  TRACK 442 AUDIO
    TITLE "11:cjc171_04221"
    INDEX 01 09:57:48
  TRACK 443 AUDIO
    TITLE "0:"
    INDEX 01 09:58:65
  TRACK 444 AUDIO
    TITLE "12:cjc171_04222"
    INDEX 01 09:59:27
  TRACK 445 AUDIO
    TITLE "0:"
    INDEX 01 10:01:22
  TRACK 446 AUDIO
    TITLE "13:cjc171_04223"
    INDEX 01 10:02:21
  TRACK 447 AUDIO
    TITLE "0:"
    INDEX 01 10:04:22
  TRACK 448 AUDIO
    TITLE "14:cjc171_04224"
    INDEX 01 10:04:61
  TRACK 449 AUDIO
    TITLE "0:"
    INDEX 01 10:07:25
  TRACK 450 AUDIO
    TITLE "15:cjc171_04225"
    INDEX 01 10:07:52
  TRACK 451 AUDIO
    TITLE "0:"
    INDEX 01 10:10:15
  TRACK 452 AUDIO
    TITLE "11:cjc171_04226"
    INDEX 01 10:11:20
  TRACK 453 AUDIO
    TITLE "0:"
    INDEX 01 10:12:24
  TRACK 454 AUDIO
    TITLE "12:cjc171_04227"
    INDEX 01 10:12:63
  TRACK 455 AUDIO
    TITLE "0:"
    INDEX 01 10:15:12
  TRACK 456 AUDIO
    TITLE "13:cjc171_04228"
    INDEX 01 10:16:10
  TRACK 457 AUDIO
    TITLE "0:"
    INDEX 01 10:17:74
  TRACK 458 AUDIO
    TITLE "14:cjc171_04229"
    INDEX 01 10:18:38
  TRACK 459 AUDIO
    TITLE "0:"
    INDEX 01 10:20:19
  TRACK 460 AUDIO
    TITLE "15:cjc171_04230"
    INDEX 01 10:20:49
  TRACK 461 AUDIO
    TITLE "0:"
    INDEX 01 10:22:28
  TRACK 462 AUDIO
    TITLE "11:cjc171_04231"
    INDEX 01 10:23:31
  TRACK 463 AUDIO
    TITLE "0:"
    INDEX 01 10:24:37
  TRACK 464 AUDIO
    TITLE "12:cjc171_04232"
    INDEX 01 10:24:72
  TRACK 465 AUDIO
    TITLE "0:"
    INDEX 01 10:26:06
  TRACK 466 AUDIO
    TITLE "13:cjc171_04233"
    INDEX 01 10:27:04
  TRACK 467 AUDIO
    TITLE "0:"
    INDEX 01 10:29:54
  TRACK 468 AUDIO
    TITLE "14:cjc171_04234"
    INDEX 01 10:30:18
  TRACK 469 AUDIO
    TITLE "0:"
    INDEX 01 10:32:42
  TRACK 470 AUDIO
    TITLE "15:cjc171_04235"
    INDEX 01 10:32:72
  TRACK 471 AUDIO
    TITLE "0:"
    INDEX 01 10:35:21
  TRACK 472 AUDIO
    TITLE "11:cjc171_04236"
    INDEX 01 10:36:26
  TRACK 473 AUDIO
    TITLE "0:"
    INDEX 01 10:37:41
  TRACK 474 AUDIO
    TITLE "12:cjc171_04237"
    INDEX 01 10:38:07
  TRACK 475 AUDIO
    TITLE "0:"
    INDEX 01 10:40:32
  TRACK 476 AUDIO
    TITLE "13:cjc171_04238"
    INDEX 01 10:41:33
  TRACK 477 AUDIO
    TITLE "0:"
    INDEX 01 10:43:67
  TRACK 478 AUDIO
    TITLE "14:cjc171_04239"
    INDEX 01 10:44:32
  TRACK 479 AUDIO
    TITLE "0:"
    INDEX 01 10:47:04
  TRACK 480 AUDIO
    TITLE "15:cjc171_04240"
    INDEX 01 10:47:34
  TRACK 481 AUDIO
    TITLE "0:"
    INDEX 01 10:50:07
  TRACK 482 AUDIO
    TITLE "11:cjc171_04241"
    INDEX 01 10:51:12
  TRACK 483 AUDIO
    TITLE "0:"
    INDEX 01 10:52:21
  TRACK 484 AUDIO
    TITLE "12:cjc171_04242"
    INDEX 01 10:52:62
  TRACK 485 AUDIO
    TITLE "0:"
    INDEX 01 10:53:72
  TRACK 486 AUDIO
    TITLE "13:cjc171_04243"
    INDEX 01 10:54:69
  TRACK 487 AUDIO
    TITLE "0:"
    INDEX 01 10:57:15
  TRACK 488 AUDIO
    TITLE "14:cjc171_04244"
    INDEX 01 10:57:54
  TRACK 489 AUDIO
    TITLE "0:"
    INDEX 01 10:59:66
  TRACK 490 AUDIO
    TITLE "15:cjc171_04245"
    INDEX 01 11:00:23
  TRACK 491 AUDIO
    TITLE "0:"
    INDEX 01 11:02:33
  TRACK 492 AUDIO
    TITLE "11:cjc171_04246"
    INDEX 01 11:03:39
  TRACK 493 AUDIO
    TITLE "0:"
    INDEX 01 11:04:62
  TRACK 494 AUDIO
    TITLE "12:cjc171_04247"
    INDEX 01 11:05:28
  TRACK 495 AUDIO
    TITLE "0:"
    INDEX 01 11:07:72
  TRACK 496 AUDIO
    TITLE "13:cjc171_04248"
    INDEX 01 11:08:71
  TRACK 497 AUDIO
    TITLE "0:"
    INDEX 01 11:11:50
  TRACK 498 AUDIO
    TITLE "14:cjc171_04249"
    INDEX 01 11:12:16
  TRACK 499 AUDIO
    TITLE "0:"
    INDEX 01 11:14:23
  TRACK 500 AUDIO
    TITLE "15:cjc171_04250"
    INDEX 01 11:14:54
  TRACK 501 AUDIO
    TITLE "0:"
    INDEX 01 11:16:61
  TRACK 502 AUDIO
    TITLE "11:cjc171_04251"
    INDEX 01 11:17:57
  TRACK 503 AUDIO
    TITLE "0:"
    INDEX 01 11:19:24
  TRACK 504 AUDIO
    TITLE "12:cjc171_04252"
    INDEX 01 11:19:63
  TRACK 505 AUDIO
    TITLE "0:"
    INDEX 01 11:22:75
  TRACK 506 AUDIO
    TITLE "13:cjc171_04253"
    INDEX 01 11:23:75
  TRACK 507 AUDIO
    TITLE "0:"
    INDEX 01 11:26:42
  TRACK 508 AUDIO
    TITLE "14:cjc171_04254"
    INDEX 01 11:26:75
  TRACK 509 AUDIO
    TITLE "0:"
    INDEX 01 11:29:62
  TRACK 510 AUDIO
    TITLE "15:cjc171_04255"
    INDEX 01 11:30:06
  TRACK 511 AUDIO
    TITLE "0:"
    INDEX 01 11:32:68
  TRACK 512 AUDIO
    TITLE "11:cjc171_04256"
    INDEX 01 11:33:65
  TRACK 513 AUDIO
    TITLE "0:"
    INDEX 01 11:35:13
  TRACK 514 AUDIO
    TITLE "12:cjc171_04257"
    INDEX 01 11:35:49
  TRACK 515 AUDIO
    TITLE "0:"
    INDEX 01 11:37:63
  TRACK 516 AUDIO
    TITLE "13:cjc171_04258"
    INDEX 01 11:38:63
  TRACK 517 AUDIO
    TITLE "0:"
    INDEX 01 11:40:12
  TRACK 518 AUDIO
    TITLE "14:cjc171_04259"
    INDEX 01 11:40:54
  TRACK 519 AUDIO
    TITLE "0:"
    INDEX 01 11:42:68
  TRACK 520 AUDIO
    TITLE "15:cjc171_04260"
    INDEX 01 11:43:13
  TRACK 521 AUDIO
    TITLE "0:"
    INDEX 01 11:45:27
  TRACK 522 AUDIO
    TITLE "11:cjc171_04261"
    INDEX 01 11:46:23
  TRACK 523 AUDIO
    TITLE "0:"
    INDEX 01 11:47:50
  TRACK 524 AUDIO
    TITLE "12:cjc171_04262"
    INDEX 01 11:48:12
  TRACK 525 AUDIO
    TITLE "0:"
    INDEX 01 11:50:30
  TRACK 526 AUDIO
    TITLE "13:cjc171_04263"
    INDEX 01 11:51:28
  TRACK 527 AUDIO
    TITLE "0:"
    INDEX 01 11:52:51
  TRACK 528 AUDIO
    TITLE "14:cjc171_04264"
    INDEX 01 11:53:09
  TRACK 529 AUDIO
    TITLE "0:"
    INDEX 01 11:55:10
  TRACK 530 AUDIO
    TITLE "15:cjc171_04265"
    INDEX 01 11:55:34
  TRACK 531 AUDIO
    TITLE "0:"
    INDEX 01 11:57:33
  TRACK 532 AUDIO
    TITLE "11:cjc171_04266"
    INDEX 01 11:58:32
  TRACK 533 AUDIO
    TITLE "0:"
    INDEX 01 11:59:61
  TRACK 534 AUDIO
    TITLE "12:cjc171_04267"
    INDEX 01 12:00:27
  TRACK 535 AUDIO
    TITLE "0:"
    INDEX 01 12:03:16
  TRACK 536 AUDIO
    TITLE "13:cjc171_04268"
    INDEX 01 12:04:13
  TRACK 537 AUDIO
    TITLE "0:"
    INDEX 01 12:06:20
  TRACK 538 AUDIO
    TITLE "14:cjc171_04269"
    INDEX 01 12:06:61
  TRACK 539 AUDIO
    TITLE "0:"
    INDEX 01 12:09:22
  TRACK 540 AUDIO
    TITLE "15:cjc171_04270"
    INDEX 01 12:09:51
  TRACK 541 AUDIO
    TITLE "0:"
    INDEX 01 12:12:14
  TRACK 542 AUDIO
    TITLE "11:cjc171_04271"
    INDEX 01 12:13:20
  TRACK 543 AUDIO
    TITLE "0:"
    INDEX 01 12:14:31
  TRACK 544 AUDIO
    TITLE "12:cjc171_04272"
    INDEX 01 12:14:66
  TRACK 545 AUDIO
    TITLE "0:"
    INDEX 01 12:16:26
  TRACK 546 AUDIO
    TITLE "13:cjc171_04273"
    INDEX 01 12:17:25
  TRACK 547 AUDIO
    TITLE "0:"
    INDEX 01 12:20:22
  TRACK 548 AUDIO
    TITLE "14:cjc171_04274"
    INDEX 01 12:20:57
  TRACK 549 AUDIO
    TITLE "0:"
    INDEX 01 12:23:28
  TRACK 550 AUDIO
    TITLE "15:cjc171_04275"
    INDEX 01 12:23:51
  TRACK 551 AUDIO
    TITLE "0:"
    INDEX 01 12:26:22
  TRACK 552 AUDIO
    TITLE "11:cjc171_04276"
    INDEX 01 12:27:20
  TRACK 553 AUDIO
    TITLE "0:"
    INDEX 01 12:28:51
  TRACK 554 AUDIO
    TITLE "12:cjc171_04277"
    INDEX 01 12:29:19
  TRACK 555 AUDIO
    TITLE "0:"
    INDEX 01 12:30:50
  TRACK 556 AUDIO
    TITLE "13:cjc171_04278"
    INDEX 01 12:31:49
  TRACK 557 AUDIO
    TITLE "0:"
    INDEX 01 12:33:44
  TRACK 558 AUDIO
    TITLE "14:cjc171_04279"
    INDEX 01 12:34:04
  TRACK 559 AUDIO
    TITLE "0:"
    INDEX 01 12:35:74
  TRACK 560 AUDIO
    TITLE "15:cjc171_04280"
    INDEX 01 12:36:27
  TRACK 561 AUDIO
    TITLE "0:"
    INDEX 01 12:38:22
  TRACK 562 AUDIO
    TITLE "11:cjc171_04281"
    INDEX 01 12:39:25
  TRACK 563 AUDIO
    TITLE "0:"
    INDEX 01 12:40:34
  TRACK 564 AUDIO
    TITLE "12:cjc171_04282"
    INDEX 01 12:41:04
  TRACK 565 AUDIO
    TITLE "0:"
    INDEX 01 12:42:16
  TRACK 566 AUDIO
    TITLE "13:cjc171_04283"
    INDEX 01 12:43:13
  TRACK 567 AUDIO
    TITLE "0:"
    INDEX 01 12:45:04
  TRACK 568 AUDIO
    TITLE "14:cjc171_04284"
    INDEX 01 12:45:37
  TRACK 569 AUDIO
    TITLE "0:"
    INDEX 01 12:47:58
  TRACK 570 AUDIO
    TITLE "15:cjc171_04285"
    INDEX 01 12:48:04
  TRACK 571 AUDIO
    TITLE "0:"
    INDEX 01 12:50:27
  TRACK 572 AUDIO
    TITLE "11:cjc171_04286"
    INDEX 01 12:51:22
  TRACK 573 AUDIO
    TITLE "0:"
    INDEX 01 12:52:53
  TRACK 574 AUDIO
    TITLE "12:cjc171_04287"
    INDEX 01 12:53:17
  TRACK 575 AUDIO
    TITLE "0:"
    INDEX 01 12:54:30
  TRACK 576 AUDIO
    TITLE "13:cjc171_04288"
    INDEX 01 12:55:24
  TRACK 577 AUDIO
    TITLE "0:"
    INDEX 01 12:56:73
  TRACK 578 AUDIO
    TITLE "14:cjc171_04289"
    INDEX 01 12:57:29
  TRACK 579 AUDIO
    TITLE "0:"
    INDEX 01 12:59:24
  TRACK 580 AUDIO
    TITLE "15:cjc171_04290"
    INDEX 01 12:59:45
  TRACK 581 AUDIO
    TITLE "0:"
    INDEX 01 13:01:40
  TRACK 582 AUDIO
    TITLE "11:cjc171_04291"
    INDEX 01 13:02:36
  TRACK 583 AUDIO
    TITLE "0:"
    INDEX 01 13:03:57
  TRACK 584 AUDIO
    TITLE "12:cjc171_04292"
    INDEX 01 13:04:17
  TRACK 585 AUDIO
    TITLE "0:"
    INDEX 01 13:05:58
  TRACK 586 AUDIO
    TITLE "13:cjc171_04293"
    INDEX 01 13:06:57
  TRACK 587 AUDIO
    TITLE "0:"
    INDEX 01 13:09:34
  TRACK 588 AUDIO
    TITLE "14:cjc171_04294"
    INDEX 01 13:09:67
  TRACK 589 AUDIO
    TITLE "0:"
    INDEX 01 13:12:40
  TRACK 590 AUDIO
    TITLE "15:cjc171_04295"
    INDEX 01 13:12:62
  TRACK 591 AUDIO
    TITLE "0:"
    INDEX 01 13:15:37
  TRACK 592 AUDIO
    TITLE "11:cjc171_04296"
    INDEX 01 13:16:32
  TRACK 593 AUDIO
    TITLE "0:"
    INDEX 01 13:17:55
  TRACK 594 AUDIO
    TITLE "12:cjc171_04297"
    INDEX 01 13:18:13
  TRACK 595 AUDIO
    TITLE "0:"
    INDEX 01 13:21:45
  TRACK 596 AUDIO
    TITLE "13:cjc171_04298"
    INDEX 01 13:22:44
  TRACK 597 AUDIO
    TITLE "0:"
    INDEX 01 13:24:28
  TRACK 598 AUDIO
    TITLE "14:cjc171_04299"
    INDEX 01 13:24:63
  TRACK 599 AUDIO
    TITLE "0:"
    INDEX 01 13:26:56
  TRACK 600 AUDIO
    TITLE "15:cjc171_04300"
    INDEX 01 13:27:03
  TRACK 601 AUDIO
    TITLE "0:"
    INDEX 01 13:28:73
  TRACK 602 AUDIO
    TITLE "11:cjc171_04301"
    INDEX 01 13:29:72
  TRACK 603 AUDIO
    TITLE "0:"
    INDEX 01 13:31:34
  TRACK 604 AUDIO
    TITLE "12:cjc171_04302"
    INDEX 01 13:31:73
  TRACK 605 AUDIO
    TITLE "0:"
    INDEX 01 13:35:04
  TRACK 606 AUDIO
    TITLE "13:cjc171_04303"
    INDEX 01 13:36:03
  TRACK 607 AUDIO
    TITLE "0:"
    INDEX 01 13:38:28
  TRACK 608 AUDIO
    TITLE "14:cjc171_04304"
    INDEX 01 13:38:67
  TRACK 609 AUDIO
    TITLE "0:"
    INDEX 01 13:41:42
  TRACK 610 AUDIO
    TITLE "15:cjc171_04305"
    INDEX 01 13:41:71
  TRACK 611 AUDIO
    TITLE "0:"
    INDEX 01 13:44:46
  TRACK 612 AUDIO
    TITLE "11:cjc171_04306"
    INDEX 01 13:45:53
  TRACK 613 AUDIO
    TITLE "0:"
    INDEX 01 13:46:66
  TRACK 614 AUDIO
    TITLE "12:cjc171_04307"
    INDEX 01 13:47:33
  TRACK 615 AUDIO
    TITLE "0:"
    INDEX 01 13:48:69
  TRACK 616 AUDIO
    TITLE "13:cjc171_04308"
    INDEX 01 13:49:67
  TRACK 617 AUDIO
    TITLE "0:"
    INDEX 01 13:52:01
  TRACK 618 AUDIO
    TITLE "14:cjc171_04309"
    INDEX 01 13:52:40
  TRACK 619 AUDIO
    TITLE "0:"
    INDEX 01 13:54:42
  TRACK 620 AUDIO
    TITLE "15:cjc171_04310"
    INDEX 01 13:54:72
  TRACK 621 AUDIO
    TITLE "0:"
    INDEX 01 13:56:75
  TRACK 622 AUDIO
    TITLE "11:cjc171_04311"
    INDEX 01 13:58:05
  TRACK 623 AUDIO
    TITLE "0:"
    INDEX 01 13:59:36
  TRACK 624 AUDIO
    TITLE "12:cjc171_04312"
    INDEX 01 13:59:75
  TRACK 625 AUDIO
    TITLE "0:"
    INDEX 01 14:01:29
  TRACK 626 AUDIO
    TITLE "13:cjc171_04313"
    INDEX 01 14:02:30
  TRACK 627 AUDIO
    TITLE "0:"
    INDEX 01 14:04:19
  TRACK 628 AUDIO
    TITLE "14:cjc171_04314"
    INDEX 01 14:04:59
  TRACK 629 AUDIO
    TITLE "0:"
    INDEX 01 14:06:54
  TRACK 630 AUDIO
    TITLE "15:cjc171_04315"
    INDEX 01 14:07:10
  TRACK 631 AUDIO
    TITLE "0:"
    INDEX 01 14:09:03
  TRACK 632 AUDIO
    TITLE "11:cjc171_04316"
    INDEX 01 14:10:10
  TRACK 633 AUDIO
    TITLE "0:"
    INDEX 01 14:11:33
  TRACK 634 AUDIO
    TITLE "12:cjc171_04317"
    INDEX 01 14:11:70
  TRACK 635 AUDIO
    TITLE "0:"
    INDEX 01 14:14:61
  TRACK 636 AUDIO
    TITLE "13:cjc171_04318"
    INDEX 01 14:15:60
  TRACK 637 AUDIO
    TITLE "0:"
    INDEX 01 14:17:73
  TRACK 638 AUDIO
    TITLE "14:cjc171_04319"
    INDEX 01 14:18:37
  TRACK 639 AUDIO
    TITLE "0:"
    INDEX 01 14:20:54
  TRACK 640 AUDIO
    TITLE "15:cjc171_04320"
    INDEX 01 14:21:08
  TRACK 641 AUDIO
    TITLE "0:"
    INDEX 01 14:23:23
  TRACK 642 AUDIO
    TITLE "11:cjc171_04321"
    INDEX 01 14:24:28
  TRACK 643 AUDIO
    TITLE "0:"
    INDEX 01 14:25:45
  TRACK 644 AUDIO
    TITLE "12:cjc171_04322"
    INDEX 01 14:26:11
  TRACK 645 AUDIO
    TITLE "0:"
    INDEX 01 14:27:48
  TRACK 646 AUDIO
    TITLE "13:cjc171_04323"
    INDEX 01 14:28:47
  TRACK 647 AUDIO
    TITLE "0:"
    INDEX 01 14:30:32
  TRACK 648 AUDIO
    TITLE "14:cjc171_04324"
    INDEX 01 14:30:72
  TRACK 649 AUDIO
    TITLE "0:"
    INDEX 01 14:32:55
  TRACK 650 AUDIO
    TITLE "15:cjc171_04325"
    INDEX 01 14:33:09
  TRACK 651 AUDIO
    TITLE "0:"
    INDEX 01 14:34:67
  TRACK 652 AUDIO
    TITLE "11:cjc171_04326"
    INDEX 01 14:35:73
  TRACK 653 AUDIO
    TITLE "0:"
    INDEX 01 14:37:09
  TRACK 654 AUDIO
    TITLE "12:cjc171_04327"
    INDEX 01 14:37:50
  TRACK 655 AUDIO
    TITLE "0:"
    INDEX 01 14:40:45
  TRACK 656 AUDIO
    TITLE "13:cjc171_04328"
    INDEX 01 14:41:38
  TRACK 657 AUDIO
    TITLE "0:"
    INDEX 01 14:44:15
  TRACK 658 AUDIO
    TITLE "14:cjc171_04329"
    INDEX 01 14:44:54
  TRACK 659 AUDIO
    TITLE "0:"
    INDEX 01 14:47:07
  TRACK 660 AUDIO
    TITLE "15:cjc171_04330"
    INDEX 01 14:47:37
  TRACK 661 AUDIO
    TITLE "0:"
    INDEX 01 14:49:65
  TRACK 662 AUDIO
    TITLE "11:cjc171_04331"
    INDEX 01 14:50:70
  TRACK 663 AUDIO
    TITLE "0:"
    INDEX 01 14:52:03
  TRACK 664 AUDIO
    TITLE "12:cjc171_04332"
    INDEX 01 14:52:44
  TRACK 665 AUDIO
    TITLE "0:"
    INDEX 01 14:55:64
  TRACK 666 AUDIO
    TITLE "13:cjc171_04333"
    INDEX 01 14:56:65
  TRACK 667 AUDIO
    TITLE "0:"
    INDEX 01 14:59:05
  TRACK 668 AUDIO
    TITLE "14:cjc171_04334"
    INDEX 01 14:59:44
  TRACK 669 AUDIO
    TITLE "0:"
    INDEX 01 15:01:39
  TRACK 670 AUDIO
    TITLE "15:cjc171_04335"
    INDEX 01 15:01:70
  TRACK 671 AUDIO
    TITLE "0:"
    INDEX 01 15:03:65
  TRACK 672 AUDIO
    TITLE "11:cjc171_04336"
    INDEX 01 15:04:73
  TRACK 673 AUDIO
    TITLE "0:"
    INDEX 01 15:06:22
  TRACK 674 AUDIO
    TITLE "12:cjc171_04337"
    INDEX 01 15:06:62
  TRACK 675 AUDIO
    TITLE "0:"
    INDEX 01 15:07:63
  TRACK 676 AUDIO
    TITLE "13:cjc171_04338"
    INDEX 01 15:08:64
  TRACK 677 AUDIO
    TITLE "0:"
    INDEX 01 15:11:43
  TRACK 678 AUDIO
    TITLE "14:cjc171_04339"
    INDEX 01 15:12:07
  TRACK 679 AUDIO
    TITLE "0:"
    INDEX 01 15:14:55
  TRACK 680 AUDIO
    TITLE "15:cjc171_04340"
    INDEX 01 15:15:10
  TRACK 681 AUDIO
    TITLE "0:"
    INDEX 01 15:17:59
  TRACK 682 AUDIO
    TITLE "11:cjc171_04341"
    INDEX 01 15:18:63
  TRACK 683 AUDIO
    TITLE "0:"
    INDEX 01 15:20:05
  TRACK 684 AUDIO
    TITLE "12:cjc171_04342"
    INDEX 01 15:20:46
  TRACK 685 AUDIO
    TITLE "0:"
    INDEX 01 15:24:32
  TRACK 686 AUDIO
    TITLE "13:cjc171_04343"
    INDEX 01 15:25:30
  TRACK 687 AUDIO
    TITLE "0:"
    INDEX 01 15:28:22
  TRACK 688 AUDIO
    TITLE "14:cjc171_04344"
    INDEX 01 15:28:63
  TRACK 689 AUDIO
    TITLE "0:"
    INDEX 01 15:31:20
  TRACK 690 AUDIO
    TITLE "15:cjc171_04345"
    INDEX 01 15:31:52
  TRACK 691 AUDIO
    TITLE "0:"
    INDEX 01 15:34:07
  TRACK 692 AUDIO
    TITLE "11:cjc171_04346"
    INDEX 01 15:35:12
  TRACK 693 AUDIO
    TITLE "0:"
    INDEX 01 15:36:45
  TRACK 694 AUDIO
    TITLE "12:cjc171_04347"
    INDEX 01 15:37:09
  TRACK 695 AUDIO
    TITLE "0:"
    INDEX 01 15:39:22
  TRACK 696 AUDIO
    TITLE "13:cjc171_04348"
    INDEX 01 15:40:19
  TRACK 697 AUDIO
    TITLE "0:"
    INDEX 01 15:42:24
  TRACK 698 AUDIO
    TITLE "14:cjc171_04349"
    INDEX 01 15:42:65
  TRACK 699 AUDIO
    TITLE "0:"
    INDEX 01 15:45:32
  TRACK 700 AUDIO
    TITLE "15:cjc171_04350"
    INDEX 01 15:45:54
  TRACK 701 AUDIO
    TITLE "0:"
    INDEX 01 15:48:21
  TRACK 702 AUDIO
    TITLE "11:cjc171_04351"
    INDEX 01 15:49:16
  TRACK 703 AUDIO
    TITLE "0:"
    INDEX 01 15:50:39
  TRACK 704 AUDIO
    TITLE "12:cjc171_04352"
    INDEX 01 15:51:02
  TRACK 705 AUDIO
    TITLE "0:"
    INDEX 01 15:54:27
  TRACK 706 AUDIO
    TITLE "13:cjc171_04353"
    INDEX 01 15:55:27
  TRACK 707 AUDIO
    TITLE "0:"
    INDEX 01 15:57:34
  TRACK 708 AUDIO
    TITLE "14:cjc171_04354"
    INDEX 01 15:57:65
  TRACK 709 AUDIO
    TITLE "0:"
    INDEX 01 16:00:55
  TRACK 710 AUDIO
    TITLE "15:cjc171_04355"
    INDEX 01 16:01:02
  TRACK 711 AUDIO
    TITLE "0:"
    INDEX 01 16:03:69
  TRACK 712 AUDIO
    TITLE "11:cjc171_04356"
    INDEX 01 16:04:67
  TRACK 713 AUDIO
    TITLE "0:"
    INDEX 01 16:06:01
  TRACK 714 AUDIO
    TITLE "12:cjc171_04357"
    INDEX 01 16:06:42
  TRACK 715 AUDIO
    TITLE "0:"
    INDEX 01 16:09:25
  TRACK 716 AUDIO
    TITLE "13:cjc171_04358"
    INDEX 01 16:10:28
  TRACK 717 AUDIO
    TITLE "0:"
    INDEX 01 16:12:57
  TRACK 718 AUDIO
    TITLE "14:cjc171_04359"
    INDEX 01 16:13:17
  TRACK 719 AUDIO
    TITLE "0:"
    INDEX 01 16:15:73
  TRACK 720 AUDIO
    TITLE "15:cjc171_04360"
    INDEX 01 16:16:23
  TRACK 721 AUDIO
    TITLE "0:"
    INDEX 01 16:19:04
  TRACK 722 AUDIO
    TITLE "11:cjc171_04361"
    INDEX 01 16:20:01
  TRACK 723 AUDIO
    TITLE "0:"
    INDEX 01 16:21:12
  TRACK 724 AUDIO
    TITLE "12:cjc171_04362"
    INDEX 01 16:21:48
  TRACK 725 AUDIO
    TITLE "0:"
    INDEX 01 16:24:17
  TRACK 726 AUDIO
    TITLE "13:cjc171_04363"
    INDEX 01 16:25:14
  TRACK 727 AUDIO
    TITLE "0:"
    INDEX 01 16:27:56
  TRACK 728 AUDIO
    TITLE "14:cjc171_04364"
    INDEX 01 16:28:14
  TRACK 729 AUDIO
    TITLE "0:"
    INDEX 01 16:30:53
  TRACK 730 AUDIO
    TITLE "15:cjc171_04365"
    INDEX 01 16:31:07
  TRACK 731 AUDIO
    TITLE "0:"
    INDEX 01 16:33:45
  TRACK 732 AUDIO
    TITLE "11:cjc171_04366"
    INDEX 01 16:34:48
  TRACK 733 AUDIO
    TITLE "0:"
    INDEX 01 16:35:65
  TRACK 734 AUDIO
    TITLE "12:cjc171_04367"
    INDEX 01 16:36:28
  TRACK 735 AUDIO
    TITLE "0:"
    INDEX 01 16:39:08
  TRACK 736 AUDIO
    TITLE "13:cjc171_04368"
    INDEX 01 16:40:10
  TRACK 737 AUDIO
    TITLE "0:"
    INDEX 01 16:42:46
  TRACK 738 AUDIO
    TITLE "14:cjc171_04369"
    INDEX 01 16:43:04
  TRACK 739 AUDIO
    TITLE "0:"
    INDEX 01 16:45:27
  TRACK 740 AUDIO
    TITLE "15:cjc171_04370"
    INDEX 01 16:45:50
  TRACK 741 AUDIO
    TITLE "0:"
    INDEX 01 16:47:69
  TRACK 742 AUDIO
    TITLE "11:cjc171_04371"
    INDEX 01 16:48:64
  TRACK 743 AUDIO
    TITLE "0:"
    INDEX 01 16:50:10
  TRACK 744 AUDIO
    TITLE "12:cjc171_04372"
    INDEX 01 16:50:51
  TRACK 745 AUDIO
    TITLE "0:"
    INDEX 01 16:52:56
  TRACK 746 AUDIO
    TITLE "13:cjc171_04373"
    INDEX 01 16:53:54
  TRACK 747 AUDIO
    TITLE "0:"
    INDEX 01 16:55:66
  TRACK 748 AUDIO
    TITLE "14:cjc171_04374"
    INDEX 01 16:56:26
  TRACK 749 AUDIO
    TITLE "0:"
    INDEX 01 16:58:49
  TRACK 750 AUDIO
    TITLE "15:cjc171_04375"
    INDEX 01 16:58:66
  TRACK 751 AUDIO
    TITLE "0:"
    INDEX 01 17:01:14
  TRACK 752 AUDIO
    TITLE "11:cjc171_04376"
    INDEX 01 17:02:07
  TRACK 753 AUDIO
    TITLE "0:"
    INDEX 01 17:03:27
  TRACK 754 AUDIO
    TITLE "12:cjc171_04377"
    INDEX 01 17:03:60
  TRACK 755 AUDIO
    TITLE "0:"
    INDEX 01 17:06:70
  TRACK 756 AUDIO
    TITLE "13:cjc171_04378"
    INDEX 01 17:07:69
  TRACK 757 AUDIO
    TITLE "0:"
    INDEX 01 17:09:51
  TRACK 758 AUDIO
    TITLE "14:cjc171_04379"
    INDEX 01 17:10:17
  TRACK 759 AUDIO
    TITLE "0:"
    INDEX 01 17:12:10
  TRACK 760 AUDIO
    TITLE "15:cjc171_04380"
    INDEX 01 17:12:29
  TRACK 761 AUDIO
    TITLE "0:"
    INDEX 01 17:14:22
  TRACK 762 AUDIO
    TITLE "11:cjc171_04381"
    INDEX 01 17:15:18
  TRACK 763 AUDIO
    TITLE "0:"
    INDEX 01 17:16:23
  TRACK 764 AUDIO
    TITLE "12:cjc171_04382"
    INDEX 01 17:16:60
  TRACK 765 AUDIO
    TITLE "0:"
    INDEX 01 17:19:26
  TRACK 766 AUDIO
    TITLE "13:cjc171_04383"
    INDEX 01 17:20:25
  TRACK 767 AUDIO
    TITLE "0:"
    INDEX 01 17:22:38
  TRACK 768 AUDIO
    TITLE "14:cjc171_04384"
    INDEX 01 17:23:02
  TRACK 769 AUDIO
    TITLE "0:"
    INDEX 01 17:25:16
  TRACK 770 AUDIO
    TITLE "15:cjc171_04385"
    INDEX 01 17:25:40
  TRACK 771 AUDIO
    TITLE "0:"
    INDEX 01 17:27:54
  TRACK 772 AUDIO
    TITLE "11:cjc171_04386"
    INDEX 01 17:28:48
  TRACK 773 AUDIO
    TITLE "0:"
    INDEX 01 17:29:75
  TRACK 774 AUDIO
    TITLE "12:cjc171_04387"
    INDEX 01 17:30:35
  TRACK 775 AUDIO
    TITLE "0:"
    INDEX 01 17:31:40
  TRACK 776 AUDIO
    TITLE "13:cjc171_04388"
    INDEX 01 17:32:40
  TRACK 777 AUDIO
    TITLE "0:"
    INDEX 01 17:34:68
  TRACK 778 AUDIO
    TITLE "14:cjc171_04389"
    INDEX 01 17:35:27
  TRACK 779 AUDIO
    TITLE "0:"
    INDEX 01 17:38:07
  TRACK 780 AUDIO
    TITLE "15:cjc171_04390"
    INDEX 01 17:38:27
  TRACK 781 AUDIO
    TITLE "0:"
    INDEX 01 17:41:08
  TRACK 782 AUDIO
    TITLE "11:cjc171_04391"
    INDEX 01 17:42:03
  TRACK 783 AUDIO
    TITLE "0:"
    INDEX 01 17:43:34
  TRACK 784 AUDIO
    TITLE "12:cjc171_04392"
    INDEX 01 17:43:67
  TRACK 785 AUDIO
    TITLE "0:"
    INDEX 01 17:45:17
  TRACK 786 AUDIO
    TITLE "13:cjc171_04393"
    INDEX 01 17:46:17
  TRACK 787 AUDIO
    TITLE "0:"
    INDEX 01 17:48:10
  TRACK 788 AUDIO
    TITLE "14:cjc171_04394"
    INDEX 01 17:48:41
  TRACK 789 AUDIO
    TITLE "0:"
    INDEX 01 17:51:27
  TRACK 790 AUDIO
    TITLE "15:cjc171_04395"
    INDEX 01 17:51:53
  TRACK 791 AUDIO
    TITLE "0:"
    INDEX 01 17:54:38
  TRACK 792 AUDIO
    TITLE "11:cjc171_04396"
    INDEX 01 17:55:37
  TRACK 793 AUDIO
    TITLE "0:"
    INDEX 01 17:56:62
  TRACK 794 AUDIO
    TITLE "12:cjc171_04397"
    INDEX 01 17:57:24
  TRACK 795 AUDIO
    TITLE "0:"
    INDEX 01 17:58:33
  TRACK 796 AUDIO
    TITLE "13:cjc171_04398"
    INDEX 01 17:59:35
  TRACK 797 AUDIO
    TITLE "0:"
    INDEX 01 18:01:65
  TRACK 798 AUDIO
    TITLE "14:cjc171_04399"
    INDEX 01 18:02:25
  TRACK 799 AUDIO
    TITLE "0:"
    INDEX 01 18:04:52
  TRACK 800 AUDIO
    TITLE "15:cjc171_04400"
    INDEX 01 18:04:71
  TRACK 801 AUDIO
    TITLE "0:"
    INDEX 01 18:07:25
  TRACK 802 AUDIO
    TITLE "11:cjc171_04401"
    INDEX 01 18:08:26
  TRACK 803 AUDIO
    TITLE "0:"
    INDEX 01 18:09:23
  TRACK 804 AUDIO
    TITLE "12:cjc171_04402"
    INDEX 01 18:09:65
  TRACK 805 AUDIO
    TITLE "0:"
    INDEX 01 18:12:20
  TRACK 806 AUDIO
    TITLE "13:cjc171_04403"
    INDEX 01 18:13:19
  TRACK 807 AUDIO
    TITLE "0:"
    INDEX 01 18:15:57
  TRACK 808 AUDIO
    TITLE "14:cjc171_04404"
    INDEX 01 18:16:22
  TRACK 809 AUDIO
    TITLE "0:"
    INDEX 01 18:18:38
  TRACK 810 AUDIO
    TITLE "15:cjc171_04405"
    INDEX 01 18:18:73
  TRACK 811 AUDIO
    TITLE "0:"
    INDEX 01 18:21:13
  TRACK 812 AUDIO
    TITLE "11:cjc171_04406"
    INDEX 01 18:22:16
  TRACK 813 AUDIO
    TITLE "0:"
    INDEX 01 18:23:37
  TRACK 814 AUDIO
    TITLE "12:cjc171_04407"
    INDEX 01 18:24:01
  TRACK 815 AUDIO
    TITLE "0:"
    INDEX 01 18:26:38
  TRACK 816 AUDIO
    TITLE "13:cjc171_04408"
    INDEX 01 18:27:37
  TRACK 817 AUDIO
    TITLE "0:"
    INDEX 01 18:30:06
  TRACK 818 AUDIO
    TITLE "14:cjc171_04409"
    INDEX 01 18:30:47
  TRACK 819 AUDIO
    TITLE "0:"
    INDEX 01 18:33:18
  TRACK 820 AUDIO
    TITLE "15:cjc171_04410"
    INDEX 01 18:33:49
  TRACK 821 AUDIO
    TITLE "0:"
    INDEX 01 18:36:20
  TRACK 822 AUDIO
    TITLE "11:cjc171_04411"
    INDEX 01 18:37:24
  TRACK 823 AUDIO
    TITLE "0:"
    INDEX 01 18:38:41
  TRACK 824 AUDIO
    TITLE "12:cjc171_04412"
    INDEX 01 18:39:07
  TRACK 825 AUDIO
    TITLE "0:"
    INDEX 01 18:40:30
  TRACK 826 AUDIO
    TITLE "13:cjc171_04413"
    INDEX 01 18:41:27
  TRACK 827 AUDIO
    TITLE "0:"
    INDEX 01 18:44:37
  TRACK 828 AUDIO
    TITLE "14:cjc171_04414"
    INDEX 01 18:44:75
  TRACK 829 AUDIO
    TITLE "0:"
    INDEX 01 18:47:65
  TRACK 830 AUDIO
    TITLE "15:cjc171_04415"
    INDEX 01 18:48:20
  TRACK 831 AUDIO
    TITLE "0:"
    INDEX 01 18:51:10
  TRACK 832 AUDIO
    TITLE "11:cjc171_04416"
    INDEX 01 18:52:15
  TRACK 833 AUDIO
    TITLE "0:"
    INDEX 01 18:53:31
  TRACK 834 AUDIO
    TITLE "12:cjc171_04417"
    INDEX 01 18:53:72
  TRACK 835 AUDIO
    TITLE "0:"
    INDEX 01 18:55:39
  TRACK 836 AUDIO
    TITLE "13:cjc171_04418"
    INDEX 01 18:56:37
  TRACK 837 AUDIO
    TITLE "0:"
    INDEX 01 18:58:67
  TRACK 838 AUDIO
    TITLE "14:cjc171_04419"
    INDEX 01 18:59:29
  TRACK 839 AUDIO
    TITLE "0:"
    INDEX 01 19:01:57
  TRACK 840 AUDIO
    TITLE "15:cjc171_04420"
    INDEX 01 19:02:12
  TRACK 841 AUDIO
    TITLE "0:"
    INDEX 01 19:04:40
  TRACK 842 AUDIO
    TITLE "11:cjc171_04421"
    INDEX 01 19:05:44
  TRACK 843 AUDIO
    TITLE "0:"
    INDEX 01 19:06:63
  TRACK 844 AUDIO
    TITLE "12:cjc171_04422"
    INDEX 01 19:07:27
  TRACK 845 AUDIO
    TITLE "0:"
    INDEX 01 19:09:37
  TRACK 846 AUDIO
    TITLE "13:cjc171_04423"
    INDEX 01 19:10:37
  TRACK 847 AUDIO
    TITLE "0:"
    INDEX 01 19:12:01
  TRACK 848 AUDIO
    TITLE "14:cjc171_04424"
    INDEX 01 19:12:30
  TRACK 849 AUDIO
    TITLE "0:"
    INDEX 01 19:14:01
  TRACK 850 AUDIO
    TITLE "15:cjc171_04425"
    INDEX 01 19:14:23
  TRACK 851 AUDIO
    TITLE "0:"
    INDEX 01 19:15:69
  TRACK 852 AUDIO
    TITLE "11:cjc171_04426"
    INDEX 01 19:16:75
  TRACK 853 AUDIO
    TITLE "0:"
    INDEX 01 19:18:07
  TRACK 854 AUDIO
    TITLE "12:cjc171_04427"
    INDEX 01 19:18:50
  TRACK 855 AUDIO
    TITLE "0:"
    INDEX 01 19:19:59
  TRACK 856 AUDIO
    TITLE "13:cjc171_04428"
    INDEX 01 19:20:59
  TRACK 857 AUDIO
    TITLE "0:"
    INDEX 01 19:22:58
  TRACK 858 AUDIO
    TITLE "14:cjc171_04429"
    INDEX 01 19:23:22
  TRACK 859 AUDIO
    TITLE "0:"
    INDEX 01 19:25:15
  TRACK 860 AUDIO
    TITLE "15:cjc171_04430"
    INDEX 01 19:25:44
  TRACK 861 AUDIO
    TITLE "0:"
    INDEX 01 19:27:37
  TRACK 862 AUDIO
    TITLE "11:cjc171_04431"
    INDEX 01 19:28:43
  TRACK 863 AUDIO
    TITLE "0:"
    INDEX 01 19:29:62
  TRACK 864 AUDIO
    TITLE "12:cjc171_04432"
    INDEX 01 19:30:28
  TRACK 865 AUDIO
    TITLE "0:"
    INDEX 01 19:31:59
  TRACK 866 AUDIO
    TITLE "13:cjc171_04433"
    INDEX 01 19:32:58
  TRACK 867 AUDIO
    TITLE "0:"
    INDEX 01 19:34:49
  TRACK 868 AUDIO
    TITLE "14:cjc171_04434"
    INDEX 01 19:35:11
  TRACK 869 AUDIO
    TITLE "0:"
    INDEX 01 19:37:10
  TRACK 870 AUDIO
    TITLE "15:cjc171_04435"
    INDEX 01 19:37:40
  TRACK 871 AUDIO
    TITLE "0:"
    INDEX 01 19:39:37
  TRACK 872 AUDIO
    TITLE "11:cjc171_04436"
    INDEX 01 19:40:42
  TRACK 873 AUDIO
    TITLE "0:"
    INDEX 01 19:41:57
  TRACK 874 AUDIO
    TITLE "12:cjc171_04437"
    INDEX 01 19:42:23
  TRACK 875 AUDIO
    TITLE "0:"
    INDEX 01 19:43:42
  TRACK 876 AUDIO
    TITLE "13:cjc171_04438"
    INDEX 01 19:44:42
  TRACK 877 AUDIO
    TITLE "0:"
    INDEX 01 19:47:22
  TRACK 878 AUDIO
    TITLE "14:cjc171_04439"
    INDEX 01 19:47:62
  TRACK 879 AUDIO
    TITLE "0:"
    INDEX 01 19:50:46
  TRACK 880 AUDIO
    TITLE "15:cjc171_04440"
    INDEX 01 19:50:74
  TRACK 881 AUDIO
    TITLE "0:"
    INDEX 01 19:53:60
  TRACK 882 AUDIO
    TITLE "11:cjc171_04441"
    INDEX 01 19:54:62
  TRACK 883 AUDIO
    TITLE "0:"
    INDEX 01 19:56:10
  TRACK 884 AUDIO
    TITLE "12:cjc171_04442"
    INDEX 01 19:56:49
  TRACK 885 AUDIO
    TITLE "0:"
    INDEX 01 19:59:02
  TRACK 886 AUDIO
    TITLE "13:cjc171_04443"
    INDEX 01 20:00:01
  TRACK 887 AUDIO
    TITLE "0:"
    INDEX 01 20:04:23
  TRACK 888 AUDIO
    TITLE "14:cjc171_04444"
    INDEX 01 20:04:62
  TRACK 889 AUDIO
    TITLE "0:"
    INDEX 01 20:09:02
  TRACK 890 AUDIO
    TITLE "15:cjc171_04445"
    INDEX 01 20:09:32
  TRACK 891 AUDIO
    TITLE "0:"
    INDEX 01 20:13:47
  TRACK 892 AUDIO
    TITLE "11:cjc171_04446"
    INDEX 01 20:14:53
  TRACK 893 AUDIO
    TITLE "0:"
    INDEX 01 20:15:70
  TRACK 894 AUDIO
    TITLE "12:cjc171_04447"
    INDEX 01 20:16:36
  TRACK 895 AUDIO
    TITLE "0:"
    INDEX 01 20:18:52
  TRACK 896 AUDIO
    TITLE "13:cjc171_04448"
    INDEX 01 20:19:52
  TRACK 897 AUDIO
    TITLE "0:"
    INDEX 01 20:21:45
  TRACK 898 AUDIO
    TITLE "14:cjc171_04449"
    INDEX 01 20:22:11
  TRACK 899 AUDIO
    TITLE "0:"
    INDEX 01 20:24:18
  TRACK 900 AUDIO
    TITLE "15:cjc171_04450"
    INDEX 01 20:24:47
  TRACK 901 AUDIO
    TITLE "0:"
    INDEX 01 20:26:56
  TRACK 902 AUDIO
    TITLE "11:cjc171_04451"
    INDEX 01 20:27:55
  TRACK 903 AUDIO
    TITLE "0:"
    INDEX 01 20:28:66
  TRACK 904 AUDIO
    TITLE "12:cjc171_04452"
    INDEX 01 20:29:34
  TRACK 905 AUDIO
    TITLE "0:"
    INDEX 01 20:30:75
  TRACK 906 AUDIO
    TITLE "13:cjc171_04453"
    INDEX 01 20:31:75
  TRACK 907 AUDIO
    TITLE "0:"
    INDEX 01 20:34:65
  TRACK 908 AUDIO
    TITLE "14:cjc171_04454"
    INDEX 01 20:35:29
  TRACK 909 AUDIO
    TITLE "0:"
    INDEX 01 20:38:30
  TRACK 910 AUDIO
    TITLE "15:cjc171_04455"
    INDEX 01 20:38:55
  TRACK 911 AUDIO
    TITLE "0:"
    INDEX 01 20:41:53
  TRACK 912 AUDIO
    TITLE "11:cjc171_04456"
    INDEX 01 20:42:49
  TRACK 913 AUDIO
    TITLE "0:"
    INDEX 01 20:44:05
  TRACK 914 AUDIO
    TITLE "12:cjc171_04457"
    INDEX 01 20:44:40
  TRACK 915 AUDIO
    TITLE "0:"
    INDEX 01 20:46:74
  TRACK 916 AUDIO
    TITLE "13:cjc171_04458"
    INDEX 01 20:48:02
  TRACK 917 AUDIO
    TITLE "0:"
    INDEX 01 20:50:03
  TRACK 918 AUDIO
    TITLE "14:cjc171_04459"
    INDEX 01 20:50:42
  TRACK 919 AUDIO
    TITLE "0:"
    INDEX 01 20:52:71
  TRACK 920 AUDIO
    TITLE "15:cjc171_04460"
    INDEX 01 20:53:15
  TRACK 921 AUDIO
    TITLE "0:"
    INDEX 01 20:55:46
  TRACK 922 AUDIO
    TITLE "11:cjc171_04461"
    INDEX 01 20:56:39
  TRACK 923 AUDIO
    TITLE "0:"
    INDEX 01 20:57:50
  TRACK 924 AUDIO
    TITLE "12:cjc171_04462"
    INDEX 01 20:58:11
  TRACK 925 AUDIO
    TITLE "0:"
    INDEX 01 21:00:62
  TRACK 926 AUDIO
    TITLE "13:cjc171_04463"
    INDEX 01 21:01:58
  TRACK 927 AUDIO
    TITLE "0:"
    INDEX 01 21:03:49
  TRACK 928 AUDIO
    TITLE "14:cjc171_04464"
    INDEX 01 21:04:07
  TRACK 929 AUDIO
    TITLE "0:"
    INDEX 01 21:05:52
  TRACK 930 AUDIO
    TITLE "15:cjc171_04465"
    INDEX 01 21:05:73
  TRACK 931 AUDIO
    TITLE "0:"
    INDEX 01 21:07:45
  TRACK 932 AUDIO
    TITLE "11:cjc171_04466"
    INDEX 01 21:08:42
  TRACK 933 AUDIO
    TITLE "0:"
    INDEX 01 21:09:65
  TRACK 934 AUDIO
    TITLE "12:cjc171_04467"
    INDEX 01 21:10:26
  TRACK 935 AUDIO
    TITLE "0:"
    INDEX 01 21:11:37
  TRACK 936 AUDIO
    TITLE "13:cjc171_04468"
    INDEX 01 21:12:34
  TRACK 937 AUDIO
    TITLE "0:"
    INDEX 01 21:15:17
  TRACK 938 AUDIO
    TITLE "14:cjc171_04469"
    INDEX 01 21:15:50
  TRACK 939 AUDIO
    TITLE "0:"
    INDEX 01 21:18:17
  TRACK 940 AUDIO
    TITLE "15:cjc171_04470"
    INDEX 01 21:18:37
  TRACK 941 AUDIO
    TITLE "0:"
    INDEX 01 21:21:06
  TRACK 942 AUDIO
    TITLE "11:cjc171_04471"
    INDEX 01 21:21:74
  TRACK 943 AUDIO
    TITLE "0:"
    INDEX 01 21:23:18
  TRACK 944 AUDIO
    TITLE "12:cjc171_04472"
    INDEX 01 21:23:58
  TRACK 945 AUDIO
    TITLE "0:"
    INDEX 01 21:25:72
  TRACK 946 AUDIO
    TITLE "13:cjc171_04473"
    INDEX 01 21:26:72
  TRACK 947 AUDIO
    TITLE "0:"
    INDEX 01 21:28:61
  TRACK 948 AUDIO
    TITLE "14:cjc171_04474"
    INDEX 01 21:29:23
  TRACK 949 AUDIO
    TITLE "0:"
    INDEX 01 21:31:65
  TRACK 950 AUDIO
    TITLE "15:cjc171_04475"
    INDEX 01 21:32:10
  TRACK 951 AUDIO
    TITLE "0:"
    INDEX 01 21:34:54
  TRACK 952 AUDIO
    TITLE "11:cjc171_04476"
    INDEX 01 21:35:49
  TRACK 953 AUDIO
    TITLE "0:"
    INDEX 01 21:36:64
  TRACK 954 AUDIO
    TITLE "12:cjc171_04477"
    INDEX 01 21:37:22
  TRACK 955 AUDIO
    TITLE "0:"
    INDEX 01 21:38:40
  TRACK 956 AUDIO
    TITLE "13:cjc171_04478"
    INDEX 01 21:39:41
  TRACK 957 AUDIO
    TITLE "0:"
    INDEX 01 21:41:57
  TRACK 958 AUDIO
    TITLE "14:cjc171_04479"
    INDEX 01 21:42:14
  TRACK 959 AUDIO
    TITLE "0:"
    INDEX 01 21:44:03
  TRACK 960 AUDIO
    TITLE "15:cjc171_04480"
    INDEX 01 21:44:24
  TRACK 961 AUDIO
    TITLE "0:"
    INDEX 01 21:46:14
  TRACK 962 AUDIO
    TITLE "11:cjc171_04481"
    INDEX 01 21:47:09
  TRACK 963 AUDIO
    TITLE "0:"
    INDEX 01 21:48:24
  TRACK 964 AUDIO
    TITLE "12:cjc171_04482"
    INDEX 01 21:48:58
  TRACK 965 AUDIO
    TITLE "0:"
    INDEX 01 21:51:19
  TRACK 966 AUDIO
    TITLE "13:cjc171_04483"
    INDEX 01 21:52:16
  TRACK 967 AUDIO
    TITLE "0:"
    INDEX 01 21:55:09
  TRACK 968 AUDIO
    TITLE "14:cjc171_04484"
    INDEX 01 21:55:42
  TRACK 969 AUDIO
    TITLE "0:"
    INDEX 01 21:58:09
  TRACK 970 AUDIO
    TITLE "15:cjc171_04485"
    INDEX 01 21:58:27
  TRACK 971 AUDIO
    TITLE "0:"
    INDEX 01 22:00:69
  TRACK 972 AUDIO
    TITLE "11:cjc171_04486"
    INDEX 01 22:01:62
  TRACK 973 AUDIO
    TITLE "0:"
    INDEX 01 22:03:12
  TRACK 974 AUDIO
    TITLE "12:cjc171_04487"
    INDEX 01 22:03:51
  TRACK 975 AUDIO
    TITLE "0:"
    INDEX 01 22:05:54
  TRACK 976 AUDIO
    TITLE "13:cjc171_04488"
    INDEX 01 22:06:57
  TRACK 977 AUDIO
    TITLE "0:"
    INDEX 01 22:08:27
  TRACK 978 AUDIO
    TITLE "14:cjc171_04489"
    INDEX 01 22:08:64
  TRACK 979 AUDIO
    TITLE "0:"
    INDEX 01 22:10:67
  TRACK 980 AUDIO
    TITLE "15:cjc171_04490"
    INDEX 01 22:11:14
  TRACK 981 AUDIO
    TITLE "0:"
    INDEX 01 22:13:18
  TRACK 982 AUDIO
    TITLE "11:cjc171_04491"
    INDEX 01 22:14:14
  TRACK 983 AUDIO
    TITLE "0:"
    INDEX 01 22:15:45
  TRACK 984 AUDIO
    TITLE "12:cjc171_04492"
    INDEX 01 22:16:03
  TRACK 985 AUDIO
    TITLE "0:"
    INDEX 01 22:17:45
  TRACK 986 AUDIO
    TITLE "13:cjc171_04493"
    INDEX 01 22:18:45
  TRACK 987 AUDIO
    TITLE "0:"
    INDEX 01 22:21:16
  TRACK 988 AUDIO
    TITLE "14:cjc171_04494"
    INDEX 01 22:21:49
  TRACK 989 AUDIO
    TITLE "0:"
    INDEX 01 22:24:61
  TRACK 990 AUDIO
    TITLE "15:cjc171_04495"
    INDEX 01 22:25:12
  TRACK 991 AUDIO
    TITLE "0:"
    INDEX 01 22:28:24
  TRACK 992 AUDIO
    TITLE "11:cjc171_04496"
    INDEX 01 22:29:25
  TRACK 993 AUDIO
    TITLE "0:"
    INDEX 01 22:30:48
  TRACK 994 AUDIO
    TITLE "12:cjc171_04497"
    INDEX 01 22:31:06
  TRACK 995 AUDIO
    TITLE "0:"
    INDEX 01 22:32:16
  TRACK 996 AUDIO
    TITLE "13:cjc171_04498"
    INDEX 01 22:33:15
  TRACK 997 AUDIO
    TITLE "0:"
    INDEX 01 22:34:56
  TRACK 998 AUDIO
    TITLE "14:cjc171_04499"
    INDEX 01 22:35:16
  TRACK 999 AUDIO
    TITLE "0:"
    INDEX 01 22:37:23
  TRACK 1000 AUDIO
    TITLE "15:cjc171_04500"
    INDEX 01 22:37:44
  TRACK 1001 AUDIO
    TITLE "0:"
    INDEX 01 22:39:53
